#tb 0: 1/25
0,          0,          0,        1,   622080, 0xf3f0bf86
0,          1,          1,        1,   622080, 0x6aaf3d42
0,          2,          2,        1,   622080, 0xe53bcd5d
0,          3,          3,        1,   622080, 0x8dabca9d
